<svg width="277" height="193" viewBox="0 0 277 193" fill="none" xmlns="http://www.w3.org/2000/svg">
<path d="M276.321 28.1859L263.909 21.9798C256.152 18.8767 254.6 11.8949 254.6 11.8949C246.067 1.03433 234.43 1.03434 234.43 1.03434C220.467 -1.29293 209.606 1.03434 209.606 1.03434C199.521 -1.29293 199.521 1.81009 199.521 1.81009C190.212 0.258574 190.988 10.3434 190.988 10.3434C188.661 15.7737 195.642 13.4465 195.642 13.4465L197.97 15.7737L187.109 27.4101L225.897 50.6828H227.449C231.327 52.2343 233.655 49.9071 233.655 49.9071C235.982 53.0101 239.085 49.9071 239.085 49.9071L251.497 56.1131C266.236 60.7677 263.133 50.6828 263.133 50.6828C272.442 54.5616 253.049 39.0464 253.049 39.0464L266.236 39.8222C276.321 40.598 275.546 33.6161 275.546 33.6161C277.873 29.7374 276.321 28.1859 276.321 28.1859ZM243.739 17.3252C243.739 17.3252 249.17 11.1192 252.273 18.101C252.273 18.101 249.945 23.5313 243.739 17.3252Z" fill="#DE383F"/>
<path d="M210.23 95.131C210.23 95.131 204.024 101.337 217.212 109.095C217.212 109.095 240.485 119.955 228.848 135.47C228.848 135.47 220.315 159.519 199.37 154.864C199.37 154.864 194.715 144.779 207.903 140.901L216.436 130.04L182.303 115.301L188.509 132.367C188.509 132.367 190.836 147.882 178.424 147.882L143.515 152.537C143.515 152.537 138.861 133.919 162.909 138.573L170.667 137.022L159.03 118.404C159.03 118.404 105.503 112.198 99.297 108.319C99.297 108.319 96.1939 138.573 70.5939 148.658L65.1636 160.295C65.1636 160.295 68.2667 177.361 86.8848 179.689C86.8848 179.689 95.4182 184.343 96.1939 189.773H94.6424C94.6424 189.773 79.1273 195.979 68.2667 188.998L48.097 162.622C48.097 162.622 42.6667 154.089 48.8727 149.434C48.8727 149.434 62.0606 133.143 58.9576 122.282C58.9576 122.282 42.6667 95.131 48.097 81.1673V71.8582L23.2727 50.137C23.2727 50.137 6.20606 33.8461 0 31.5188C0 31.5188 16.2909 26.8643 38.7879 49.3613C38.7879 49.3613 48.097 60.2219 59.7333 59.4461C59.7333 59.4461 96.9697 41.6037 135.758 50.137C135.758 50.137 174.097 39.6036 179.527 34.1733H179.854L179.97 34.6023C180.528 34.6323 217.226 56.3567 217.988 57.1188C216.436 60.2219 216.436 65.6522 219.539 74.9613C219.539 74.9613 222.642 80.3916 210.23 95.131Z" fill="#DE383F"/>
</svg>
